<svg xmlns="http://www.w3.org/2000/svg" xmlns:xlink="http://www.w3.org/1999/xlink" width="800" zoomAndPan="magnify" viewBox="0 0 600 112.499997" height="150" preserveAspectRatio="xMidYMid meet" version="1.0"><defs><clipPath id="bf472febfd"><path d="M 1.328125 0 L 598.671875 0 L 598.671875 111.867188 L 1.328125 111.867188 Z M 1.328125 0 " clip-rule="nonzero"/></clipPath><clipPath id="189c18e381"><path d="M -4.183594 105.027344 L 29.667969 80.792969 C 63.515625 56.730469 131.214844 8.015625 198.910156 8.140625 C 266.609375 8.015625 334.308594 56.730469 402.007812 73.890625 C 469.707031 91.046875 537.402344 77.488281 605.101562 80.792969 C 672.800781 84.269531 740.5 105.027344 808.195312 87.742188 C 875.894531 70.289062 943.59375 15.21875 1011.292969 -2.238281 C 1078.992188 -19.519531 1146.6875 1.238281 1214.386719 18.519531 C 1282.085938 35.972656 1349.785156 49.53125 1417.480469 63.511719 C 1485.179688 77.488281 1552.878906 91.046875 1620.578125 91.171875 C 1688.277344 91.046875 1755.972656 77.488281 1823.671875 60.035156 C 1891.371094 42.753906 1959.070312 21.996094 2026.765625 25.46875 C 2094.464844 28.773438 2162.164062 56.730469 2229.863281 66.984375 C 2297.558594 77.488281 2365.257812 70.289062 2432.957031 66.984375 C 2500.65625 63.511719 2568.355469 63.511719 2636.050781 77.363281 C 2703.75 91.046875 2771.449219 119.003906 2839.148438 101.550781 C 2906.84375 84.269531 2974.542969 21.996094 3042.242188 -9.140625 C 3109.941406 -40.277344 3177.640625 -40.277344 3245.335938 -12.617188 C 3313.035156 15.21875 3380.734375 70.289062 3448.433594 91.171875 C 3516.128906 111.804688 3583.828125 98.246094 3651.527344 80.792969 C 3719.226562 63.511719 3786.925781 42.753906 3854.621094 53.132812 C 3922.320312 63.511719 3990.019531 105.027344 4057.71875 118.878906 C 4125.414062 132.5625 4193.113281 119.003906 4260.8125 108.5 C 4328.511719 98.246094 4396.210938 91.046875 4463.90625 94.648438 C 4531.605469 98.246094 4599.304688 111.804688 4667.003906 94.648438 C 4734.699219 77.488281 4802.398438 28.773438 4836.25 4.710938 L 4870.097656 -19.519531 L 4870.097656 167.300781 L 4836.25 167.300781 C 4802.398438 167.300781 4734.699219 167.300781 4667.003906 167.300781 C 4599.304688 167.300781 4531.605469 167.300781 4463.90625 167.300781 C 4396.210938 167.300781 4328.511719 167.300781 4260.8125 167.300781 C 4193.113281 167.300781 4125.414062 167.300781 4057.71875 167.300781 C 3990.019531 167.300781 3922.320312 167.300781 3854.621094 167.300781 C 3786.925781 167.300781 3719.226562 167.300781 3651.527344 167.300781 C 3583.828125 167.300781 3516.128906 167.300781 3448.433594 167.300781 C 3380.734375 167.300781 3313.035156 167.300781 3245.335938 167.300781 C 3177.640625 167.300781 3109.941406 167.300781 3042.242188 167.300781 C 2974.542969 167.300781 2906.84375 167.300781 2839.148438 167.300781 C 2771.449219 167.300781 2703.75 167.300781 2636.050781 167.300781 C 2568.355469 167.300781 2500.65625 167.300781 2432.957031 167.300781 C 2365.257812 167.300781 2297.558594 167.300781 2229.863281 167.300781 C 2162.164062 167.300781 2094.464844 167.300781 2026.765625 167.300781 C 1959.070312 167.300781 1891.371094 167.300781 1823.671875 167.300781 C 1755.972656 167.300781 1688.277344 167.300781 1620.578125 167.300781 C 1552.878906 167.300781 1485.179688 167.300781 1417.480469 167.300781 C 1349.785156 167.300781 1282.085938 167.300781 1214.386719 167.300781 C 1146.6875 167.300781 1078.992188 167.300781 1011.292969 167.300781 C 943.59375 167.300781 875.894531 167.300781 808.195312 167.300781 C 740.5 167.300781 672.800781 167.300781 605.101562 167.300781 C 537.402344 167.300781 469.707031 167.300781 402.007812 167.300781 C 334.308594 167.300781 266.609375 167.300781 198.910156 167.300781 C 131.214844 167.300781 63.515625 167.300781 29.667969 167.300781 L -4.183594 167.300781 Z M -4.183594 105.027344 " clip-rule="nonzero"/></clipPath><linearGradient x1="0" gradientTransform="matrix(4874.280687, 0, 0, 200.246729, -4.183059, -32.947666)" y1="0.723191" x2="0" gradientUnits="userSpaceOnUse" y2="0.164535" id="b5b1b09e52"><stop stop-opacity="1" stop-color="rgb(36.053467%, 65.777588%, 93.656921%)" offset="0"/><stop stop-opacity="1" stop-color="rgb(35.984802%, 65.675354%, 93.649292%)" offset="0.015625"/><stop stop-opacity="1" stop-color="rgb(35.847473%, 65.472412%, 93.634033%)" offset="0.03125"/><stop stop-opacity="1" stop-color="rgb(35.710144%, 65.270996%, 93.6203%)" offset="0.046875"/><stop stop-opacity="1" stop-color="rgb(35.572815%, 65.068054%, 93.606567%)" offset="0.0625"/><stop stop-opacity="1" stop-color="rgb(35.437012%, 64.865112%, 93.592834%)" offset="0.078125"/><stop stop-opacity="1" stop-color="rgb(35.299683%, 64.66217%, 93.579102%)" offset="0.09375"/><stop stop-opacity="1" stop-color="rgb(35.162354%, 64.460754%, 93.565369%)" offset="0.109375"/><stop stop-opacity="1" stop-color="rgb(35.025024%, 64.257812%, 93.551636%)" offset="0.125"/><stop stop-opacity="1" stop-color="rgb(34.887695%, 64.054871%, 93.536377%)" offset="0.140625"/><stop stop-opacity="1" stop-color="rgb(34.751892%, 63.853455%, 93.522644%)" offset="0.15625"/><stop stop-opacity="1" stop-color="rgb(34.614563%, 63.650513%, 93.508911%)" offset="0.171875"/><stop stop-opacity="1" stop-color="rgb(34.477234%, 63.447571%, 93.495178%)" offset="0.1875"/><stop stop-opacity="1" stop-color="rgb(34.339905%, 63.244629%, 93.481445%)" offset="0.203125"/><stop stop-opacity="1" stop-color="rgb(34.202576%, 63.043213%, 93.467712%)" offset="0.21875"/><stop stop-opacity="1" stop-color="rgb(34.066772%, 62.840271%, 93.452454%)" offset="0.234375"/><stop stop-opacity="1" stop-color="rgb(33.929443%, 62.637329%, 93.438721%)" offset="0.25"/><stop stop-opacity="1" stop-color="rgb(33.792114%, 62.435913%, 93.424988%)" offset="0.265625"/><stop stop-opacity="1" stop-color="rgb(33.654785%, 62.232971%, 93.411255%)" offset="0.28125"/><stop stop-opacity="1" stop-color="rgb(33.517456%, 62.030029%, 93.397522%)" offset="0.296875"/><stop stop-opacity="1" stop-color="rgb(33.380127%, 61.827087%, 93.383789%)" offset="0.3125"/><stop stop-opacity="1" stop-color="rgb(33.244324%, 61.625671%, 93.370056%)" offset="0.328125"/><stop stop-opacity="1" stop-color="rgb(33.106995%, 61.422729%, 93.354797%)" offset="0.34375"/><stop stop-opacity="1" stop-color="rgb(32.969666%, 61.219788%, 93.341064%)" offset="0.359375"/><stop stop-opacity="1" stop-color="rgb(32.832336%, 61.018372%, 93.327332%)" offset="0.375"/><stop stop-opacity="1" stop-color="rgb(32.695007%, 60.81543%, 93.313599%)" offset="0.390625"/><stop stop-opacity="1" stop-color="rgb(32.559204%, 60.612488%, 93.299866%)" offset="0.40625"/><stop stop-opacity="1" stop-color="rgb(32.421875%, 60.409546%, 93.286133%)" offset="0.421875"/><stop stop-opacity="1" stop-color="rgb(32.284546%, 60.20813%, 93.270874%)" offset="0.4375"/><stop stop-opacity="1" stop-color="rgb(32.147217%, 60.005188%, 93.257141%)" offset="0.453125"/><stop stop-opacity="1" stop-color="rgb(32.009888%, 59.802246%, 93.243408%)" offset="0.46875"/><stop stop-opacity="1" stop-color="rgb(31.872559%, 59.60083%, 93.229675%)" offset="0.484375"/><stop stop-opacity="1" stop-color="rgb(31.736755%, 59.397888%, 93.215942%)" offset="0.5"/><stop stop-opacity="1" stop-color="rgb(31.599426%, 59.194946%, 93.202209%)" offset="0.515625"/><stop stop-opacity="1" stop-color="rgb(31.462097%, 58.992004%, 93.188477%)" offset="0.53125"/><stop stop-opacity="1" stop-color="rgb(31.324768%, 58.790588%, 93.173218%)" offset="0.546875"/><stop stop-opacity="1" stop-color="rgb(31.187439%, 58.587646%, 93.159485%)" offset="0.5625"/><stop stop-opacity="1" stop-color="rgb(31.051636%, 58.384705%, 93.145752%)" offset="0.578125"/><stop stop-opacity="1" stop-color="rgb(30.914307%, 58.181763%, 93.132019%)" offset="0.59375"/><stop stop-opacity="1" stop-color="rgb(30.776978%, 57.980347%, 93.118286%)" offset="0.609375"/><stop stop-opacity="1" stop-color="rgb(30.639648%, 57.777405%, 93.104553%)" offset="0.625"/><stop stop-opacity="1" stop-color="rgb(30.502319%, 57.574463%, 93.09082%)" offset="0.640625"/><stop stop-opacity="1" stop-color="rgb(30.366516%, 57.373047%, 93.075562%)" offset="0.65625"/><stop stop-opacity="1" stop-color="rgb(30.229187%, 57.170105%, 93.061829%)" offset="0.671875"/><stop stop-opacity="1" stop-color="rgb(30.091858%, 56.967163%, 93.048096%)" offset="0.6875"/><stop stop-opacity="1" stop-color="rgb(29.954529%, 56.764221%, 93.034363%)" offset="0.703125"/><stop stop-opacity="1" stop-color="rgb(29.8172%, 56.562805%, 93.02063%)" offset="0.71875"/><stop stop-opacity="1" stop-color="rgb(29.679871%, 56.359863%, 93.006897%)" offset="0.734375"/><stop stop-opacity="1" stop-color="rgb(29.544067%, 56.156921%, 92.991638%)" offset="0.75"/><stop stop-opacity="1" stop-color="rgb(29.406738%, 55.955505%, 92.977905%)" offset="0.765625"/><stop stop-opacity="1" stop-color="rgb(29.269409%, 55.752563%, 92.964172%)" offset="0.78125"/><stop stop-opacity="1" stop-color="rgb(29.13208%, 55.549622%, 92.950439%)" offset="0.796875"/><stop stop-opacity="1" stop-color="rgb(28.994751%, 55.34668%, 92.936707%)" offset="0.8125"/><stop stop-opacity="1" stop-color="rgb(28.858948%, 55.145264%, 92.922974%)" offset="0.828125"/><stop stop-opacity="1" stop-color="rgb(28.721619%, 54.942322%, 92.909241%)" offset="0.84375"/><stop stop-opacity="1" stop-color="rgb(28.58429%, 54.73938%, 92.893982%)" offset="0.859375"/><stop stop-opacity="1" stop-color="rgb(28.44696%, 54.537964%, 92.880249%)" offset="0.875"/><stop stop-opacity="1" stop-color="rgb(28.309631%, 54.335022%, 92.866516%)" offset="0.890625"/><stop stop-opacity="1" stop-color="rgb(28.173828%, 54.13208%, 92.852783%)" offset="0.90625"/><stop stop-opacity="1" stop-color="rgb(28.036499%, 53.929138%, 92.83905%)" offset="0.921875"/><stop stop-opacity="1" stop-color="rgb(27.89917%, 53.727722%, 92.825317%)" offset="0.9375"/><stop stop-opacity="1" stop-color="rgb(27.761841%, 53.52478%, 92.810059%)" offset="0.953125"/><stop stop-opacity="1" stop-color="rgb(27.624512%, 53.321838%, 92.796326%)" offset="0.96875"/><stop stop-opacity="1" stop-color="rgb(27.487183%, 53.120422%, 92.782593%)" offset="0.984375"/><stop stop-opacity="1" stop-color="rgb(27.351379%, 52.91748%, 92.76886%)" offset="1"/></linearGradient><clipPath id="3f366118e9"><path d="M 1.328125 0 L 598.671875 0 L 598.671875 111.867188 L 1.328125 111.867188 Z M 1.328125 0 " clip-rule="nonzero"/></clipPath><clipPath id="7cfdead5b7"><path d="M -4.183594 1.660156 L 29.667969 15.511719 C 63.515625 29.195312 131.214844 57.15625 198.910156 84.691406 C 266.609375 112.226562 334.308594 140.1875 402.007812 143.492188 C 469.707031 146.964844 537.402344 126.207031 605.101562 115.828125 C 672.800781 105.449219 740.5 105.449219 808.195312 101.976562 C 875.894531 98.671875 943.59375 91.46875 1011.292969 91.597656 C 1078.992188 91.46875 1146.6875 98.671875 1214.386719 81.21875 C 1282.085938 63.933594 1349.785156 22.417969 1417.480469 1.660156 C 1485.179688 -19.097656 1552.878906 -19.097656 1620.578125 -8.71875 C 1688.277344 1.660156 1755.972656 22.417969 1823.671875 25.890625 C 1891.371094 29.195312 1959.070312 15.640625 2026.765625 25.890625 C 2094.464844 36.398438 2162.164062 70.710938 2229.863281 81.21875 C 2297.558594 91.46875 2365.257812 77.914062 2432.957031 60.460938 C 2500.65625 43.175781 2568.355469 22.417969 2636.050781 15.511719 C 2703.75 8.4375 2771.449219 15.640625 2839.148438 22.417969 C 2906.84375 29.195312 2974.542969 36.398438 3042.242188 29.324219 C 3109.941406 22.417969 3177.640625 1.660156 3245.335938 8.566406 C 3313.035156 15.640625 3380.734375 49.953125 3448.433594 67.40625 C 3516.128906 84.691406 3583.828125 84.691406 3651.527344 88.164062 C 3719.226562 91.46875 3786.925781 98.671875 3854.621094 105.449219 C 3922.320312 112.226562 3990.019531 119.429688 4057.71875 122.734375 C 4125.414062 126.207031 4193.113281 126.207031 4260.8125 115.828125 C 4328.511719 105.449219 4396.210938 84.691406 4463.90625 77.785156 C 4531.605469 70.710938 4599.304688 77.914062 4667.003906 70.839844 C 4734.699219 63.933594 4802.398438 43.175781 4836.25 32.796875 L 4870.097656 22.417969 L 4870.097656 188.480469 L 4836.25 188.480469 C 4802.398438 188.480469 4734.699219 188.480469 4667.003906 188.480469 C 4599.304688 188.480469 4531.605469 188.480469 4463.90625 188.480469 C 4396.210938 188.480469 4328.511719 188.480469 4260.8125 188.480469 C 4193.113281 188.480469 4125.414062 188.480469 4057.71875 188.480469 C 3990.019531 188.480469 3922.320312 188.480469 3854.621094 188.480469 C 3786.925781 188.480469 3719.226562 188.480469 3651.527344 188.480469 C 3583.828125 188.480469 3516.128906 188.480469 3448.433594 188.480469 C 3380.734375 188.480469 3313.035156 188.480469 3245.335938 188.480469 C 3177.640625 188.480469 3109.941406 188.480469 3042.242188 188.480469 C 2974.542969 188.480469 2906.84375 188.480469 2839.148438 188.480469 C 2771.449219 188.480469 2703.75 188.480469 2636.050781 188.480469 C 2568.355469 188.480469 2500.65625 188.480469 2432.957031 188.480469 C 2365.257812 188.480469 2297.558594 188.480469 2229.863281 188.480469 C 2162.164062 188.480469 2094.464844 188.480469 2026.765625 188.480469 C 1959.070312 188.480469 1891.371094 188.480469 1823.671875 188.480469 C 1755.972656 188.480469 1688.277344 188.480469 1620.578125 188.480469 C 1552.878906 188.480469 1485.179688 188.480469 1417.480469 188.480469 C 1349.785156 188.480469 1282.085938 188.480469 1214.386719 188.480469 C 1146.6875 188.480469 1078.992188 188.480469 1011.292969 188.480469 C 943.59375 188.480469 875.894531 188.480469 808.195312 188.480469 C 740.5 188.480469 672.800781 188.480469 605.101562 188.480469 C 537.402344 188.480469 469.707031 188.480469 402.007812 188.480469 C 334.308594 188.480469 266.609375 188.480469 198.910156 188.480469 C 131.214844 188.480469 63.515625 188.480469 29.667969 188.480469 L -4.183594 188.480469 Z M -4.183594 1.660156 " clip-rule="nonzero"/></clipPath><linearGradient x1="0" gradientTransform="matrix(4874.280687, 0, 0, 204.015936, -4.183059, -15.535506)" y1="0.624483" x2="0" gradientUnits="userSpaceOnUse" y2="0.0761485" id="c42650283d"><stop stop-opacity="1" stop-color="rgb(34.503174%, 63.487244%, 93.49823%)" offset="0"/><stop stop-opacity="1" stop-color="rgb(34.436035%, 63.388062%, 93.490601%)" offset="0.015625"/><stop stop-opacity="1" stop-color="rgb(34.301758%, 63.188171%, 93.476868%)" offset="0.03125"/><stop stop-opacity="1" stop-color="rgb(34.16748%, 62.989807%, 93.463135%)" offset="0.046875"/><stop stop-opacity="1" stop-color="rgb(34.033203%, 62.791443%, 93.449402%)" offset="0.0625"/><stop stop-opacity="1" stop-color="rgb(33.898926%, 62.593079%, 93.435669%)" offset="0.078125"/><stop stop-opacity="1" stop-color="rgb(33.763123%, 62.393188%, 93.421936%)" offset="0.09375"/><stop stop-opacity="1" stop-color="rgb(33.628845%, 62.194824%, 93.408203%)" offset="0.109375"/><stop stop-opacity="1" stop-color="rgb(33.494568%, 61.99646%, 93.39447%)" offset="0.125"/><stop stop-opacity="1" stop-color="rgb(33.360291%, 61.798096%, 93.380737%)" offset="0.140625"/><stop stop-opacity="1" stop-color="rgb(33.226013%, 61.598206%, 93.367004%)" offset="0.15625"/><stop stop-opacity="1" stop-color="rgb(33.091736%, 61.399841%, 93.353271%)" offset="0.171875"/><stop stop-opacity="1" stop-color="rgb(32.955933%, 61.201477%, 93.339539%)" offset="0.1875"/><stop stop-opacity="1" stop-color="rgb(32.821655%, 61.003113%, 93.325806%)" offset="0.203125"/><stop stop-opacity="1" stop-color="rgb(32.687378%, 60.803223%, 93.312073%)" offset="0.21875"/><stop stop-opacity="1" stop-color="rgb(32.553101%, 60.604858%, 93.29834%)" offset="0.234375"/><stop stop-opacity="1" stop-color="rgb(32.418823%, 60.406494%, 93.284607%)" offset="0.25"/><stop stop-opacity="1" stop-color="rgb(32.284546%, 60.206604%, 93.270874%)" offset="0.265625"/><stop stop-opacity="1" stop-color="rgb(32.150269%, 60.00824%, 93.257141%)" offset="0.28125"/><stop stop-opacity="1" stop-color="rgb(32.014465%, 59.809875%, 93.243408%)" offset="0.296875"/><stop stop-opacity="1" stop-color="rgb(31.880188%, 59.611511%, 93.229675%)" offset="0.3125"/><stop stop-opacity="1" stop-color="rgb(31.745911%, 59.411621%, 93.215942%)" offset="0.328125"/><stop stop-opacity="1" stop-color="rgb(31.611633%, 59.213257%, 93.202209%)" offset="0.34375"/><stop stop-opacity="1" stop-color="rgb(31.477356%, 59.014893%, 93.188477%)" offset="0.359375"/><stop stop-opacity="1" stop-color="rgb(31.343079%, 58.816528%, 93.17627%)" offset="0.375"/><stop stop-opacity="1" stop-color="rgb(31.207275%, 58.616638%, 93.162537%)" offset="0.390625"/><stop stop-opacity="1" stop-color="rgb(31.072998%, 58.418274%, 93.148804%)" offset="0.40625"/><stop stop-opacity="1" stop-color="rgb(30.938721%, 58.21991%, 93.135071%)" offset="0.421875"/><stop stop-opacity="1" stop-color="rgb(30.804443%, 58.021545%, 93.121338%)" offset="0.4375"/><stop stop-opacity="1" stop-color="rgb(30.670166%, 57.821655%, 93.107605%)" offset="0.453125"/><stop stop-opacity="1" stop-color="rgb(30.535889%, 57.623291%, 93.093872%)" offset="0.46875"/><stop stop-opacity="1" stop-color="rgb(30.401611%, 57.424927%, 93.080139%)" offset="0.484375"/><stop stop-opacity="1" stop-color="rgb(30.265808%, 57.225037%, 93.066406%)" offset="0.5"/><stop stop-opacity="1" stop-color="rgb(30.131531%, 57.026672%, 93.052673%)" offset="0.515625"/><stop stop-opacity="1" stop-color="rgb(29.997253%, 56.828308%, 93.03894%)" offset="0.53125"/><stop stop-opacity="1" stop-color="rgb(29.862976%, 56.629944%, 93.025208%)" offset="0.546875"/><stop stop-opacity="1" stop-color="rgb(29.728699%, 56.430054%, 93.011475%)" offset="0.5625"/><stop stop-opacity="1" stop-color="rgb(29.594421%, 56.231689%, 92.997742%)" offset="0.578125"/><stop stop-opacity="1" stop-color="rgb(29.458618%, 56.033325%, 92.984009%)" offset="0.59375"/><stop stop-opacity="1" stop-color="rgb(29.324341%, 55.834961%, 92.970276%)" offset="0.609375"/><stop stop-opacity="1" stop-color="rgb(29.190063%, 55.635071%, 92.956543%)" offset="0.625"/><stop stop-opacity="1" stop-color="rgb(29.055786%, 55.436707%, 92.94281%)" offset="0.640625"/><stop stop-opacity="1" stop-color="rgb(28.921509%, 55.238342%, 92.929077%)" offset="0.65625"/><stop stop-opacity="1" stop-color="rgb(28.787231%, 55.039978%, 92.915344%)" offset="0.671875"/><stop stop-opacity="1" stop-color="rgb(28.651428%, 54.840088%, 92.901611%)" offset="0.6875"/><stop stop-opacity="1" stop-color="rgb(28.517151%, 54.641724%, 92.887878%)" offset="0.703125"/><stop stop-opacity="1" stop-color="rgb(28.382874%, 54.443359%, 92.874146%)" offset="0.71875"/><stop stop-opacity="1" stop-color="rgb(28.248596%, 54.243469%, 92.860413%)" offset="0.734375"/><stop stop-opacity="1" stop-color="rgb(28.114319%, 54.045105%, 92.84668%)" offset="0.75"/><stop stop-opacity="1" stop-color="rgb(27.980042%, 53.846741%, 92.832947%)" offset="0.765625"/><stop stop-opacity="1" stop-color="rgb(27.845764%, 53.648376%, 92.819214%)" offset="0.78125"/><stop stop-opacity="1" stop-color="rgb(27.709961%, 53.448486%, 92.805481%)" offset="0.796875"/><stop stop-opacity="1" stop-color="rgb(27.575684%, 53.250122%, 92.791748%)" offset="0.8125"/><stop stop-opacity="1" stop-color="rgb(27.441406%, 53.051758%, 92.778015%)" offset="0.828125"/><stop stop-opacity="1" stop-color="rgb(27.307129%, 52.853394%, 92.764282%)" offset="0.84375"/><stop stop-opacity="1" stop-color="rgb(27.172852%, 52.653503%, 92.750549%)" offset="0.859375"/><stop stop-opacity="1" stop-color="rgb(27.038574%, 52.455139%, 92.736816%)" offset="0.875"/><stop stop-opacity="1" stop-color="rgb(26.902771%, 52.256775%, 92.723083%)" offset="0.890625"/><stop stop-opacity="1" stop-color="rgb(26.768494%, 52.058411%, 92.709351%)" offset="0.90625"/><stop stop-opacity="1" stop-color="rgb(26.634216%, 51.858521%, 92.695618%)" offset="0.921875"/><stop stop-opacity="1" stop-color="rgb(26.499939%, 51.660156%, 92.681885%)" offset="0.9375"/><stop stop-opacity="1" stop-color="rgb(26.365662%, 51.461792%, 92.668152%)" offset="0.953125"/><stop stop-opacity="1" stop-color="rgb(26.231384%, 51.261902%, 92.654419%)" offset="0.96875"/><stop stop-opacity="1" stop-color="rgb(26.097107%, 51.063538%, 92.640686%)" offset="0.984375"/><stop stop-opacity="1" stop-color="rgb(25.961304%, 50.865173%, 92.626953%)" offset="1"/></linearGradient><clipPath id="5df900d91a"><path d="M 1.328125 25 L 598.671875 25 L 598.671875 111.867188 L 1.328125 111.867188 Z M 1.328125 25 " clip-rule="nonzero"/></clipPath><clipPath id="dce9332fac"><path d="M -4.183594 188.902344 L 29.667969 168.144531 C 63.515625 147.386719 131.214844 105.875 198.910156 74.738281 C 266.609375 43.601562 334.308594 22.84375 402.007812 29.746094 C 469.707031 36.820312 537.402344 71.136719 605.101562 92.019531 C 672.800781 112.652344 740.5 119.851562 808.195312 130.105469 C 875.894531 140.609375 943.59375 154.167969 1011.292969 133.535156 C 1078.992188 112.652344 1146.6875 57.578125 1214.386719 43.601562 C 1282.085938 29.621094 1349.785156 57.578125 1417.480469 78.210938 C 1485.179688 99.09375 1552.878906 112.652344 1620.578125 126.628906 C 1688.277344 140.609375 1755.972656 154.167969 1823.671875 133.535156 C 1891.371094 112.652344 1959.070312 57.578125 2026.765625 40.125 C 2094.464844 22.84375 2162.164062 43.601562 2229.863281 71.261719 C 2297.558594 99.09375 2365.257812 133.410156 2432.957031 154.292969 C 2500.65625 174.925781 2568.355469 182.125 2636.050781 178.523438 C 2703.75 174.925781 2771.449219 161.367188 2839.148438 130.105469 C 2906.84375 99.09375 2974.542969 50.378906 3042.242188 33.222656 C 3109.941406 16.0625 3177.640625 29.621094 3245.335938 40.125 C 3313.035156 50.378906 3380.734375 57.578125 3448.433594 74.738281 C 3516.128906 91.894531 3583.828125 119.851562 3651.527344 130.105469 C 3719.226562 140.609375 3786.925781 133.410156 3854.621094 119.726562 C 3922.320312 105.875 3990.019531 85.117188 4057.71875 88.589844 C 4125.414062 91.894531 4193.113281 119.851562 4260.8125 130.105469 C 4328.511719 140.609375 4396.210938 133.410156 4463.90625 140.484375 C 4531.605469 147.386719 4599.304688 168.144531 4667.003906 157.765625 C 4734.699219 147.386719 4802.398438 105.875 4836.25 85.117188 L 4870.097656 64.359375 L 4870.097656 209.660156 L 4836.25 209.660156 C 4802.398438 209.660156 4734.699219 209.660156 4667.003906 209.660156 C 4599.304688 209.660156 4531.605469 209.660156 4463.90625 209.660156 C 4396.210938 209.660156 4328.511719 209.660156 4260.8125 209.660156 C 4193.113281 209.660156 4125.414062 209.660156 4057.71875 209.660156 C 3990.019531 209.660156 3922.320312 209.660156 3854.621094 209.660156 C 3786.925781 209.660156 3719.226562 209.660156 3651.527344 209.660156 C 3583.828125 209.660156 3516.128906 209.660156 3448.433594 209.660156 C 3380.734375 209.660156 3313.035156 209.660156 3245.335938 209.660156 C 3177.640625 209.660156 3109.941406 209.660156 3042.242188 209.660156 C 2974.542969 209.660156 2906.84375 209.660156 2839.148438 209.660156 C 2771.449219 209.660156 2703.75 209.660156 2636.050781 209.660156 C 2568.355469 209.660156 2500.65625 209.660156 2432.957031 209.660156 C 2365.257812 209.660156 2297.558594 209.660156 2229.863281 209.660156 C 2162.164062 209.660156 2094.464844 209.660156 2026.765625 209.660156 C 1959.070312 209.660156 1891.371094 209.660156 1823.671875 209.660156 C 1755.972656 209.660156 1688.277344 209.660156 1620.578125 209.660156 C 1552.878906 209.660156 1485.179688 209.660156 1417.480469 209.660156 C 1349.785156 209.660156 1282.085938 209.660156 1214.386719 209.660156 C 1146.6875 209.660156 1078.992188 209.660156 1011.292969 209.660156 C 943.59375 209.660156 875.894531 209.660156 808.195312 209.660156 C 740.5 209.660156 672.800781 209.660156 605.101562 209.660156 C 537.402344 209.660156 469.707031 209.660156 402.007812 209.660156 C 334.308594 209.660156 266.609375 209.660156 198.910156 209.660156 C 131.214844 209.660156 63.515625 209.660156 29.667969 209.660156 L -4.183594 209.660156 Z M -4.183594 188.902344 " clip-rule="nonzero"/></clipPath><linearGradient x1="0" gradientTransform="matrix(4874.280687, 0, 0, 184.617811, -4.183059, 25.043989)" y1="0.470296" x2="0" gradientUnits="userSpaceOnUse" y2="-0.0486405" id="4434bcb643"><stop stop-opacity="1" stop-color="rgb(32.08313%, 59.910583%, 93.251038%)" offset="0"/><stop stop-opacity="1" stop-color="rgb(31.954956%, 59.721375%, 93.237305%)" offset="0.03125"/><stop stop-opacity="1" stop-color="rgb(31.700134%, 59.346008%, 93.211365%)" offset="0.0625"/><stop stop-opacity="1" stop-color="rgb(31.445312%, 58.969116%, 93.185425%)" offset="0.09375"/><stop stop-opacity="1" stop-color="rgb(31.190491%, 58.592224%, 93.159485%)" offset="0.125"/><stop stop-opacity="1" stop-color="rgb(30.937195%, 58.216858%, 93.133545%)" offset="0.15625"/><stop stop-opacity="1" stop-color="rgb(30.682373%, 57.839966%, 93.107605%)" offset="0.1875"/><stop stop-opacity="1" stop-color="rgb(30.427551%, 57.4646%, 93.081665%)" offset="0.21875"/><stop stop-opacity="1" stop-color="rgb(30.172729%, 57.087708%, 93.055725%)" offset="0.25"/><stop stop-opacity="1" stop-color="rgb(29.917908%, 56.712341%, 93.029785%)" offset="0.28125"/><stop stop-opacity="1" stop-color="rgb(29.663086%, 56.335449%, 93.003845%)" offset="0.3125"/><stop stop-opacity="1" stop-color="rgb(29.408264%, 55.958557%, 92.977905%)" offset="0.34375"/><stop stop-opacity="1" stop-color="rgb(29.154968%, 55.583191%, 92.951965%)" offset="0.375"/><stop stop-opacity="1" stop-color="rgb(28.900146%, 55.206299%, 92.926025%)" offset="0.40625"/><stop stop-opacity="1" stop-color="rgb(28.645325%, 54.830933%, 92.900085%)" offset="0.4375"/><stop stop-opacity="1" stop-color="rgb(28.390503%, 54.454041%, 92.874146%)" offset="0.46875"/><stop stop-opacity="1" stop-color="rgb(28.135681%, 54.078674%, 92.848206%)" offset="0.5"/><stop stop-opacity="1" stop-color="rgb(27.880859%, 53.701782%, 92.822266%)" offset="0.53125"/><stop stop-opacity="1" stop-color="rgb(27.626038%, 53.326416%, 92.796326%)" offset="0.5625"/><stop stop-opacity="1" stop-color="rgb(27.372742%, 52.949524%, 92.770386%)" offset="0.59375"/><stop stop-opacity="1" stop-color="rgb(27.11792%, 52.572632%, 92.744446%)" offset="0.625"/><stop stop-opacity="1" stop-color="rgb(26.863098%, 52.197266%, 92.718506%)" offset="0.65625"/><stop stop-opacity="1" stop-color="rgb(26.608276%, 51.820374%, 92.692566%)" offset="0.6875"/><stop stop-opacity="1" stop-color="rgb(26.353455%, 51.445007%, 92.666626%)" offset="0.71875"/><stop stop-opacity="1" stop-color="rgb(26.098633%, 51.068115%, 92.640686%)" offset="0.75"/><stop stop-opacity="1" stop-color="rgb(25.843811%, 50.692749%, 92.614746%)" offset="0.78125"/><stop stop-opacity="1" stop-color="rgb(25.590515%, 50.315857%, 92.588806%)" offset="0.8125"/><stop stop-opacity="1" stop-color="rgb(25.335693%, 49.938965%, 92.562866%)" offset="0.84375"/><stop stop-opacity="1" stop-color="rgb(25.080872%, 49.563599%, 92.536926%)" offset="0.875"/><stop stop-opacity="1" stop-color="rgb(24.82605%, 49.186707%, 92.510986%)" offset="1"/></linearGradient><clipPath id="94933bfa95"><path d="M 1.328125 37 L 598.671875 37 L 598.671875 111.867188 L 1.328125 111.867188 Z M 1.328125 37 " clip-rule="nonzero"/></clipPath><clipPath id="0bc428b0e6"><path d="M -4.183594 106.296875 L 29.667969 109.769531 C 63.515625 113.074219 131.214844 120.277344 198.910156 130.527344 C 266.609375 141.035156 334.308594 154.589844 402.007812 137.433594 C 469.707031 120.277344 537.402344 71.558594 605.101562 50.929688 C 672.800781 30.042969 740.5 37.246094 808.195312 47.496094 C 875.894531 58.003906 943.59375 71.558594 1011.292969 95.917969 C 1078.992188 120.277344 1146.6875 154.589844 1214.386719 158.191406 C 1282.085938 161.792969 1349.785156 133.832031 1417.480469 120.148438 C 1485.179688 106.296875 1552.878906 106.296875 1620.578125 99.390625 C 1688.277344 92.316406 1755.972656 78.761719 1823.671875 75.160156 C 1891.371094 71.558594 1959.070312 78.761719 2026.765625 78.632812 C 2094.464844 78.761719 2162.164062 71.558594 2229.863281 78.632812 C 2297.558594 85.539062 2365.257812 106.296875 2432.957031 127.054688 C 2500.65625 147.8125 2568.355469 168.570312 2636.050781 161.664062 C 2703.75 154.589844 2771.449219 120.277344 2839.148438 109.769531 C 2906.84375 99.519531 2974.542969 113.074219 3042.242188 123.582031 C 3109.941406 133.832031 3177.640625 141.035156 3245.335938 130.527344 C 3313.035156 120.277344 3380.734375 92.316406 3448.433594 92.445312 C 3516.128906 92.316406 3583.828125 120.277344 3651.527344 123.582031 C 3719.226562 127.054688 3786.925781 106.296875 3854.621094 99.390625 C 3922.320312 92.316406 3990.019531 99.519531 4057.71875 109.769531 C 4125.414062 120.277344 4193.113281 133.832031 4260.8125 123.582031 C 4328.511719 113.074219 4396.210938 78.761719 4463.90625 89.011719 C 4531.605469 99.519531 4599.304688 154.589844 4667.003906 172.042969 C 4734.699219 189.328125 4802.398438 168.570312 4836.25 158.191406 L 4870.097656 147.8125 L 4870.097656 230.84375 L 4836.25 230.84375 C 4802.398438 230.84375 4734.699219 230.84375 4667.003906 230.84375 C 4599.304688 230.84375 4531.605469 230.84375 4463.90625 230.84375 C 4396.210938 230.84375 4328.511719 230.84375 4260.8125 230.84375 C 4193.113281 230.84375 4125.414062 230.84375 4057.71875 230.84375 C 3990.019531 230.84375 3922.320312 230.84375 3854.621094 230.84375 C 3786.925781 230.84375 3719.226562 230.84375 3651.527344 230.84375 C 3583.828125 230.84375 3516.128906 230.84375 3448.433594 230.84375 C 3380.734375 230.84375 3313.035156 230.84375 3245.335938 230.84375 C 3177.640625 230.84375 3109.941406 230.84375 3042.242188 230.84375 C 2974.542969 230.84375 2906.84375 230.84375 2839.148438 230.84375 C 2771.449219 230.84375 2703.75 230.84375 2636.050781 230.84375 C 2568.355469 230.84375 2500.65625 230.84375 2432.957031 230.84375 C 2365.257812 230.84375 2297.558594 230.84375 2229.863281 230.84375 C 2162.164062 230.84375 2094.464844 230.84375 2026.765625 230.84375 C 1959.070312 230.84375 1891.371094 230.84375 1823.671875 230.84375 C 1755.972656 230.84375 1688.277344 230.84375 1620.578125 230.84375 C 1552.878906 230.84375 1485.179688 230.84375 1417.480469 230.84375 C 1349.785156 230.84375 1282.085938 230.84375 1214.386719 230.84375 C 1146.6875 230.84375 1078.992188 230.84375 1011.292969 230.84375 C 943.59375 230.84375 875.894531 230.84375 808.195312 230.84375 C 740.5 230.84375 672.800781 230.84375 605.101562 230.84375 C 537.402344 230.84375 469.707031 230.84375 402.007812 230.84375 C 334.308594 230.84375 266.609375 230.84375 198.910156 230.84375 C 131.214844 230.84375 63.515625 230.84375 29.667969 230.84375 L -4.183594 230.84375 Z M -4.183594 106.296875 " clip-rule="nonzero"/></clipPath><linearGradient x1="0" gradientTransform="matrix(4874.280687, 0, 0, 193.348597, -4.183059, 37.494565)" y1="0.384665" x2="0" gradientUnits="userSpaceOnUse" y2="-0.0385355" id="8c3eee29e1"><stop stop-opacity="1" stop-color="rgb(30.738831%, 57.923889%, 93.115234%)" offset="0"/><stop stop-opacity="1" stop-color="rgb(30.635071%, 57.769775%, 93.104553%)" offset="0.03125"/><stop stop-opacity="1" stop-color="rgb(30.427551%, 57.463074%, 93.083191%)" offset="0.0625"/><stop stop-opacity="1" stop-color="rgb(30.220032%, 57.156372%, 93.061829%)" offset="0.09375"/><stop stop-opacity="1" stop-color="rgb(30.010986%, 56.848145%, 93.040466%)" offset="0.125"/><stop stop-opacity="1" stop-color="rgb(29.803467%, 56.541443%, 93.019104%)" offset="0.15625"/><stop stop-opacity="1" stop-color="rgb(29.595947%, 56.234741%, 92.997742%)" offset="0.1875"/><stop stop-opacity="1" stop-color="rgb(29.388428%, 55.92804%, 92.976379%)" offset="0.21875"/><stop stop-opacity="1" stop-color="rgb(29.180908%, 55.621338%, 92.956543%)" offset="0.25"/><stop stop-opacity="1" stop-color="rgb(28.973389%, 55.314636%, 92.935181%)" offset="0.28125"/><stop stop-opacity="1" stop-color="rgb(28.765869%, 55.007935%, 92.913818%)" offset="0.3125"/><stop stop-opacity="1" stop-color="rgb(28.55835%, 54.701233%, 92.892456%)" offset="0.34375"/><stop stop-opacity="1" stop-color="rgb(28.35083%, 54.394531%, 92.871094%)" offset="0.375"/><stop stop-opacity="1" stop-color="rgb(28.143311%, 54.08783%, 92.849731%)" offset="0.40625"/><stop stop-opacity="1" stop-color="rgb(27.935791%, 53.781128%, 92.828369%)" offset="0.4375"/><stop stop-opacity="1" stop-color="rgb(27.728271%, 53.474426%, 92.808533%)" offset="0.46875"/><stop stop-opacity="1" stop-color="rgb(27.520752%, 53.167725%, 92.78717%)" offset="0.5"/><stop stop-opacity="1" stop-color="rgb(27.313232%, 52.859497%, 92.765808%)" offset="0.53125"/><stop stop-opacity="1" stop-color="rgb(27.104187%, 52.552795%, 92.744446%)" offset="0.5625"/><stop stop-opacity="1" stop-color="rgb(26.896667%, 52.246094%, 92.723083%)" offset="0.59375"/><stop stop-opacity="1" stop-color="rgb(26.689148%, 51.939392%, 92.701721%)" offset="0.625"/><stop stop-opacity="1" stop-color="rgb(26.481628%, 51.63269%, 92.680359%)" offset="0.65625"/><stop stop-opacity="1" stop-color="rgb(26.274109%, 51.325989%, 92.658997%)" offset="0.6875"/><stop stop-opacity="1" stop-color="rgb(26.066589%, 51.019287%, 92.63916%)" offset="0.71875"/><stop stop-opacity="1" stop-color="rgb(25.85907%, 50.712585%, 92.617798%)" offset="0.75"/><stop stop-opacity="1" stop-color="rgb(25.65155%, 50.405884%, 92.596436%)" offset="0.78125"/><stop stop-opacity="1" stop-color="rgb(25.444031%, 50.099182%, 92.575073%)" offset="0.8125"/><stop stop-opacity="1" stop-color="rgb(25.236511%, 49.79248%, 92.553711%)" offset="0.84375"/><stop stop-opacity="1" stop-color="rgb(25.028992%, 49.485779%, 92.532349%)" offset="0.875"/><stop stop-opacity="1" stop-color="rgb(24.812317%, 49.165344%, 92.50946%)" offset="1"/></linearGradient></defs><g clip-path="url(#bf472febfd)"><g clip-path="url(#189c18e381)"><path fill="url(#b5b1b09e52)" d="M 1.328125 0 L 1.328125 111.867188 L 598.671875 111.867188 L 598.671875 0 Z M 1.328125 0 " fill-rule="nonzero"/></g></g><g clip-path="url(#3f366118e9)"><g clip-path="url(#7cfdead5b7)"><path fill="url(#c42650283d)" d="M 1.328125 0 L 1.328125 111.867188 L 598.671875 111.867188 L 598.671875 0 Z M 1.328125 0 " fill-rule="nonzero"/></g></g><g clip-path="url(#5df900d91a)"><g clip-path="url(#dce9332fac)"><path fill="url(#4434bcb643)" d="M 1.328125 16.0625 L 1.328125 111.867188 L 598.671875 111.867188 L 598.671875 16.0625 Z M 1.328125 16.0625 " fill-rule="nonzero"/></g></g><g clip-path="url(#94933bfa95)"><g clip-path="url(#0bc428b0e6)"><path fill="url(#8c3eee29e1)" d="M 1.328125 30.042969 L 1.328125 111.867188 L 598.671875 111.867188 L 598.671875 30.042969 Z M 1.328125 30.042969 " fill-rule="nonzero"/></g></g></svg>