<svg xmlns="http://www.w3.org/2000/svg" xmlns:xlink="http://www.w3.org/1999/xlink" width="1080" zoomAndPan="magnify" viewBox="0 0 810 809.999993" height="1080" preserveAspectRatio="xMidYMid meet" version="1.0"><defs><clipPath id="id1"><path d="M 370 13 L 457 13 L 457 794 L 370 794 Z M 370 13 " clip-rule="nonzero"/></clipPath><clipPath id="id2"><path d="M 375.699219 13.640625 L 720.746094 171.636719 L 434.734375 796.269531 L 89.6875 638.273438 Z M 375.699219 13.640625 " clip-rule="nonzero"/></clipPath><clipPath id="id3"><path d="M 375.699219 13.640625 L 720.746094 171.636719 L 434.734375 796.269531 L 89.6875 638.273438 Z M 375.699219 13.640625 " clip-rule="nonzero"/></clipPath></defs><g clip-path="url(#id1)"><g clip-path="url(#id2)"><g clip-path="url(#id3)"><path fill="#c9dbff" stroke="none" d="M 375.863281 13.714844 C 377.960938 43.191406 376.222656 72.433594 370.648438 101.445312 L 408.183594 86.15625 L 409.121094 88.449219 L 411.269531 93.765625 C 412.632812 97.378906 413.890625 101.03125 415.199219 104.679688 L 417.148438 110.140625 C 417.789062 111.964844 418.304688 113.832031 418.882812 115.671875 L 422.292969 126.765625 C 423.347656 130.480469 424.253906 134.242188 425.242188 137.976562 L 426.699219 143.589844 C 427.199219 145.457031 427.566406 147.386719 427.949219 149.257812 L 430.355469 160.601562 C 431.09375 164.40625 431.644531 168.222656 432.304688 172.03125 C 433.734375 179.617188 434.410156 187.347656 435.386719 195.011719 C 436.769531 210.375 437.738281 225.878906 437.230469 241.320312 C 436.832031 272.253906 432.003906 302.910156 424.683594 333.144531 C 417.363281 363.378906 408.085938 393.269531 399.574219 423.53125 C 395.320312 438.671875 391.285156 453.929688 387.8125 469.363281 C 386.019531 477.0625 384.511719 484.847656 383.085938 492.640625 L 381.179688 504.386719 L 380.226562 510.257812 L 379.527344 516.164062 L 378.148438 527.988281 C 377.878906 529.953125 377.796875 531.933594 377.628906 533.910156 L 377.179688 539.839844 L 376.511719 548.746094 C 376.453125 549.730469 376.46875 550.734375 376.394531 551.714844 L 375.988281 563.609375 C 375.949219 565.589844 375.816406 567.566406 375.863281 569.566406 L 375.898438 575.515625 L 375.996094 587.40625 L 376.539062 599.300781 C 376.75 603.253906 376.835938 607.234375 377.253906 611.171875 C 377.976562 619.074219 378.515625 626.988281 379.679688 634.808594 C 380.199219 638.738281 380.664062 642.6875 381.21875 646.605469 L 383.207031 658.339844 L 384.199219 664.199219 C 384.546875 666.152344 385.019531 668.09375 385.394531 670.023438 L 387.867188 681.675781 C 388.265625 683.59375 388.746094 685.542969 389.230469 687.5 L 390.691406 693.265625 L 392.15625 699.027344 C 392.632812 700.980469 393.074219 702.914062 393.691406 704.773438 C 402.339844 735.417969 413.882812 764.9375 428.316406 793.328125 L 438.214844 788.261719 C 424.113281 760.539062 412.839844 731.714844 404.394531 701.789062 C 403.808594 699.945312 403.382812 698.050781 402.894531 696.179688 L 401.464844 690.542969 L 400.035156 684.914062 C 399.546875 683.039062 399.066406 681.152344 398.695312 679.25 L 396.292969 667.882812 C 395.910156 665.972656 395.429688 664.082031 395.140625 662.15625 L 394.171875 656.425781 L 392.21875 645.003906 C 391.664062 641.171875 391.214844 637.320312 390.707031 633.480469 C 389.582031 625.808594 389.082031 618.085938 388.351562 610.359375 C 387.941406 606.496094 387.855469 602.628906 387.644531 598.769531 L 387.113281 587.160156 L 387.039062 575.539062 L 387 569.726562 C 386.976562 567.789062 387.105469 565.855469 387.152344 563.917969 L 387.550781 552.308594 C 387.585938 551.335938 387.574219 550.359375 387.664062 549.40625 L 387.871094 546.484375 L 388.304688 540.6875 L 388.742188 534.902344 C 388.90625 532.972656 388.984375 531.035156 389.25 529.109375 L 390.59375 517.59375 C 394.261719 486.839844 401.84375 456.640625 410.261719 426.5625 C 418.683594 396.484375 428.085938 366.460938 435.460938 335.722656 C 442.835938 304.984375 447.949219 273.351562 448.351562 241.527344 C 448.84375 225.617188 447.875 209.714844 446.46875 193.871094 C 445.464844 185.988281 444.757812 178.054688 443.296875 170.238281 C 442.625 166.316406 442.058594 162.382812 441.296875 158.480469 L 438.828125 146.816406 C 438.394531 144.882812 438.019531 142.898438 437.523438 141.019531 L 436.039062 135.242188 C 435.023438 131.398438 434.085938 127.53125 433 123.714844 L 429.535156 112.328125 C 428.9375 110.433594 428.410156 108.511719 427.75 106.640625 L 425.742188 101.015625 C 424.390625 97.277344 423.101562 93.515625 421.699219 89.796875 L 419.484375 84.347656 L 418.515625 81.988281 L 456.058594 66.703125 C 431.554688 45.667969 404.820312 28.007812 375.863281 13.714844 Z M 375.863281 13.714844 " fill-opacity="1" fill-rule="nonzero"/></g></g></g></svg>