<svg id="wave" style="transform:rotate(0deg); transition: 0.3s" viewBox="0 0 1440 490" version="1.1" xmlns="http://www.w3.org/2000/svg"><defs><linearGradient id="sw-gradient-0" x1="0" x2="0" y1="1" y2="0"><stop stop-color="rgba(103, 184, 240, 1)" offset="0%"></stop><stop stop-color="rgba(63, 125, 236, 1)" offset="100%"></stop></linearGradient></defs><path style="transform:translate(0, 0px); opacity:1" fill="url(#sw-gradient-0)" d="M0,343L80,285.8C160,229,320,114,480,114.3C640,114,800,229,960,269.5C1120,310,1280,278,1440,285.8C1600,294,1760,343,1920,302.2C2080,261,2240,131,2400,89.8C2560,49,2720,98,2880,138.8C3040,180,3200,212,3360,245C3520,278,3680,310,3840,310.3C4000,310,4160,278,4320,236.8C4480,196,4640,147,4800,155.2C4960,163,5120,229,5280,253.2C5440,278,5600,261,5760,253.2C5920,245,6080,245,6240,277.7C6400,310,6560,376,6720,334.8C6880,294,7040,147,7200,73.5C7360,0,7520,0,7680,65.3C7840,131,8000,261,8160,310.3C8320,359,8480,327,8640,285.8C8800,245,8960,196,9120,220.5C9280,245,9440,343,9600,375.7C9760,408,9920,376,10080,351.2C10240,327,10400,310,10560,318.5C10720,327,10880,359,11040,318.5C11200,278,11360,163,11440,106.2L11520,49L11520,490L11440,490C11360,490,11200,490,11040,490C10880,490,10720,490,10560,490C10400,490,10240,490,10080,490C9920,490,9760,490,9600,490C9440,490,9280,490,9120,490C8960,490,8800,490,8640,490C8480,490,8320,490,8160,490C8000,490,7840,490,7680,490C7520,490,7360,490,7200,490C7040,490,6880,490,6720,490C6560,490,6400,490,6240,490C6080,490,5920,490,5760,490C5600,490,5440,490,5280,490C5120,490,4960,490,4800,490C4640,490,4480,490,4320,490C4160,490,4000,490,3840,490C3680,490,3520,490,3360,490C3200,490,3040,490,2880,490C2720,490,2560,490,2400,490C2240,490,2080,490,1920,490C1760,490,1600,490,1440,490C1280,490,1120,490,960,490C800,490,640,490,480,490C320,490,160,490,80,490L0,490Z"></path><defs><linearGradient id="sw-gradient-1" x1="0" x2="0" y1="1" y2="0"><stop stop-color="rgba(103, 184, 240, 1)" offset="0%"></stop><stop stop-color="rgba(63, 125, 236, 1)" offset="100%"></stop></linearGradient></defs><path style="transform:translate(0, 50px); opacity:0.9" fill="url(#sw-gradient-1)" d="M0,49L80,81.7C160,114,320,180,480,245C640,310,800,376,960,383.8C1120,392,1280,343,1440,318.5C1600,294,1760,294,1920,285.8C2080,278,2240,261,2400,261.3C2560,261,2720,278,2880,236.8C3040,196,3200,98,3360,49C3520,0,3680,0,3840,24.5C4000,49,4160,98,4320,106.2C4480,114,4640,82,4800,106.2C4960,131,5120,212,5280,236.8C5440,261,5600,229,5760,187.8C5920,147,6080,98,6240,81.7C6400,65,6560,82,6720,98C6880,114,7040,131,7200,114.3C7360,98,7520,49,7680,65.3C7840,82,8000,163,8160,204.2C8320,245,8480,245,8640,253.2C8800,261,8960,278,9120,294C9280,310,9440,327,9600,334.8C9760,343,9920,343,10080,318.5C10240,294,10400,245,10560,228.7C10720,212,10880,229,11040,212.3C11200,196,11360,147,11440,122.5L11520,98L11520,490L11440,490C11360,490,11200,490,11040,490C10880,490,10720,490,10560,490C10400,490,10240,490,10080,490C9920,490,9760,490,9600,490C9440,490,9280,490,9120,490C8960,490,8800,490,8640,490C8480,490,8320,490,8160,490C8000,490,7840,490,7680,490C7520,490,7360,490,7200,490C7040,490,6880,490,6720,490C6560,490,6400,490,6240,490C6080,490,5920,490,5760,490C5600,490,5440,490,5280,490C5120,490,4960,490,4800,490C4640,490,4480,490,4320,490C4160,490,4000,490,3840,490C3680,490,3520,490,3360,490C3200,490,3040,490,2880,490C2720,490,2560,490,2400,490C2240,490,2080,490,1920,490C1760,490,1600,490,1440,490C1280,490,1120,490,960,490C800,490,640,490,480,490C320,490,160,490,80,490L0,490Z"></path><defs><linearGradient id="sw-gradient-2" x1="0" x2="0" y1="1" y2="0"><stop stop-color="rgba(103, 184, 240, 1)" offset="0%"></stop><stop stop-color="rgba(63, 125, 236, 1)" offset="100%"></stop></linearGradient></defs><path style="transform:translate(0, 100px); opacity:0.8" fill="url(#sw-gradient-2)" d="M0,441L80,392C160,343,320,245,480,171.5C640,98,800,49,960,65.3C1120,82,1280,163,1440,212.3C1600,261,1760,278,1920,302.2C2080,327,2240,359,2400,310.3C2560,261,2720,131,2880,98C3040,65,3200,131,3360,179.7C3520,229,3680,261,3840,294C4000,327,4160,359,4320,310.3C4480,261,4640,131,4800,89.8C4960,49,5120,98,5280,163.3C5440,229,5600,310,5760,359.3C5920,408,6080,425,6240,416.5C6400,408,6560,376,6720,302.2C6880,229,7040,114,7200,73.5C7360,33,7520,65,7680,89.8C7840,114,8000,131,8160,171.5C8320,212,8480,278,8640,302.2C8800,327,8960,310,9120,277.7C9280,245,9440,196,9600,204.2C9760,212,9920,278,10080,302.2C10240,327,10400,310,10560,326.7C10720,343,10880,392,11040,367.5C11200,343,11360,245,11440,196L11520,147L11520,490L11440,490C11360,490,11200,490,11040,490C10880,490,10720,490,10560,490C10400,490,10240,490,10080,490C9920,490,9760,490,9600,490C9440,490,9280,490,9120,490C8960,490,8800,490,8640,490C8480,490,8320,490,8160,490C8000,490,7840,490,7680,490C7520,490,7360,490,7200,490C7040,490,6880,490,6720,490C6560,490,6400,490,6240,490C6080,490,5920,490,5760,490C5600,490,5440,490,5280,490C5120,490,4960,490,4800,490C4640,490,4480,490,4320,490C4160,490,4000,490,3840,490C3680,490,3520,490,3360,490C3200,490,3040,490,2880,490C2720,490,2560,490,2400,490C2240,490,2080,490,1920,490C1760,490,1600,490,1440,490C1280,490,1120,490,960,490C800,490,640,490,480,490C320,490,160,490,80,490L0,490Z"></path><defs><linearGradient id="sw-gradient-3" x1="0" x2="0" y1="1" y2="0"><stop stop-color="rgba(103, 184, 240, 1)" offset="0%"></stop><stop stop-color="rgba(63, 125, 236, 1)" offset="100%"></stop></linearGradient></defs><path style="transform:translate(0, 150px); opacity:0.7" fill="url(#sw-gradient-3)" d="M0,196L80,204.2C160,212,320,229,480,253.2C640,278,800,310,960,269.5C1120,229,1280,114,1440,65.3C1600,16,1760,33,1920,57.2C2080,82,2240,114,2400,171.5C2560,229,2720,310,2880,318.5C3040,327,3200,261,3360,228.7C3520,196,3680,196,3840,179.7C4000,163,4160,131,4320,122.5C4480,114,4640,131,4800,130.7C4960,131,5120,114,5280,130.7C5440,147,5600,196,5760,245C5920,294,6080,343,6240,326.7C6400,310,6560,229,6720,204.2C6880,180,7040,212,7200,236.8C7360,261,7520,278,7680,253.2C7840,229,8000,163,8160,163.3C8320,163,8480,229,8640,236.8C8800,245,8960,196,9120,179.7C9280,163,9440,180,9600,204.2C9760,229,9920,261,10080,236.8C10240,212,10400,131,10560,155.2C10720,180,10880,310,11040,351.2C11200,392,11360,343,11440,318.5L11520,294L11520,490L11440,490C11360,490,11200,490,11040,490C10880,490,10720,490,10560,490C10400,490,10240,490,10080,490C9920,490,9760,490,9600,490C9440,490,9280,490,9120,490C8960,490,8800,490,8640,490C8480,490,8320,490,8160,490C8000,490,7840,490,7680,490C7520,490,7360,490,7200,490C7040,490,6880,490,6720,490C6560,490,6400,490,6240,490C6080,490,5920,490,5760,490C5600,490,5440,490,5280,490C5120,490,4960,490,4800,490C4640,490,4480,490,4320,490C4160,490,4000,490,3840,490C3680,490,3520,490,3360,490C3200,490,3040,490,2880,490C2720,490,2560,490,2400,490C2240,490,2080,490,1920,490C1760,490,1600,490,1440,490C1280,490,1120,490,960,490C800,490,640,490,480,490C320,490,160,490,80,490L0,490Z"></path></svg>