<?xml version="1.0" standalone="no"?>
<svg xmlns:xlink="http://www.w3.org/1999/xlink" id="wave" style="transform:rotate(0deg); transition: 0.3s" viewBox="0 0 1440 340" version="1.1" xmlns="http://www.w3.org/2000/svg"><defs><linearGradient id="sw-gradient-0" x1="0" x2="0" y1="1" y2="0"><stop stop-color="rgba(2, 4, 25, 1)" offset="0%"/><stop stop-color="rgba(77.282, 121.04, 6.595, 1)" offset="100%"/></linearGradient></defs><path style="transform:translate(0, 0px); opacity:1" fill="url(#sw-gradient-0)" d="M0,34L40,51C80,68,160,102,240,113.3C320,125,400,113,480,96.3C560,79,640,57,720,39.7C800,23,880,11,960,28.3C1040,45,1120,91,1200,90.7C1280,91,1360,45,1440,68C1520,91,1600,181,1680,221C1760,261,1840,249,1920,204C2000,159,2080,79,2160,85C2240,91,2320,181,2400,221C2480,261,2560,249,2640,232.3C2720,215,2800,193,2880,192.7C2960,193,3040,215,3120,221C3200,227,3280,215,3360,209.7C3440,204,3520,204,3600,181.3C3680,159,3760,113,3840,124.7C3920,136,4000,204,4080,215.3C4160,227,4240,181,4320,175.7C4400,170,4480,204,4560,181.3C4640,159,4720,79,4800,62.3C4880,45,4960,91,5040,107.7C5120,125,5200,113,5280,107.7C5360,102,5440,102,5520,90.7C5600,79,5680,57,5720,45.3L5760,34L5760,340L5720,340C5680,340,5600,340,5520,340C5440,340,5360,340,5280,340C5200,340,5120,340,5040,340C4960,340,4880,340,4800,340C4720,340,4640,340,4560,340C4480,340,4400,340,4320,340C4240,340,4160,340,4080,340C4000,340,3920,340,3840,340C3760,340,3680,340,3600,340C3520,340,3440,340,3360,340C3280,340,3200,340,3120,340C3040,340,2960,340,2880,340C2800,340,2720,340,2640,340C2560,340,2480,340,2400,340C2320,340,2240,340,2160,340C2080,340,2000,340,1920,340C1840,340,1760,340,1680,340C1600,340,1520,340,1440,340C1360,340,1280,340,1200,340C1120,340,1040,340,960,340C880,340,800,340,720,340C640,340,560,340,480,340C400,340,320,340,240,340C160,340,80,340,40,340L0,340Z"/><defs><linearGradient id="sw-gradient-1" x1="0" x2="0" y1="1" y2="0"><stop stop-color="rgba(17.86, 27.03, 123.316, 1)" offset="0%"/><stop stop-color="rgba(50.669, 77.781, 6.873, 1)" offset="100%"/></linearGradient></defs><path style="transform:translate(0, 50px); opacity:0.9" fill="url(#sw-gradient-1)" d="M0,68L40,68C80,68,160,68,240,73.7C320,79,400,91,480,79.3C560,68,640,34,720,22.7C800,11,880,23,960,73.7C1040,125,1120,215,1200,215.3C1280,215,1360,125,1440,107.7C1520,91,1600,147,1680,141.7C1760,136,1840,68,1920,73.7C2000,79,2080,159,2160,158.7C2240,159,2320,79,2400,79.3C2480,79,2560,159,2640,164.3C2720,170,2800,102,2880,102C2960,102,3040,170,3120,198.3C3200,227,3280,215,3360,181.3C3440,147,3520,91,3600,68C3680,45,3760,57,3840,62.3C3920,68,4000,68,4080,73.7C4160,79,4240,91,4320,85C4400,79,4480,57,4560,90.7C4640,125,4720,215,4800,260.7C4880,306,4960,306,5040,266.3C5120,227,5200,147,5280,96.3C5360,45,5440,23,5520,28.3C5600,34,5680,68,5720,85L5760,102L5760,340L5720,340C5680,340,5600,340,5520,340C5440,340,5360,340,5280,340C5200,340,5120,340,5040,340C4960,340,4880,340,4800,340C4720,340,4640,340,4560,340C4480,340,4400,340,4320,340C4240,340,4160,340,4080,340C4000,340,3920,340,3840,340C3760,340,3680,340,3600,340C3520,340,3440,340,3360,340C3280,340,3200,340,3120,340C3040,340,2960,340,2880,340C2800,340,2720,340,2640,340C2560,340,2480,340,2400,340C2320,340,2240,340,2160,340C2080,340,2000,340,1920,340C1840,340,1760,340,1680,340C1600,340,1520,340,1440,340C1360,340,1280,340,1200,340C1120,340,1040,340,960,340C880,340,800,340,720,340C640,340,560,340,480,340C400,340,320,340,240,340C160,340,80,340,40,340L0,340Z"/><defs><linearGradient id="sw-gradient-2" x1="0" x2="0" y1="1" y2="0"><stop stop-color="rgba(15.397, 0, 159.745, 1)" offset="0%"/><stop stop-color="rgba(61.291, 95.995, 5.231, 1)" offset="100%"/></linearGradient></defs><path style="transform:translate(0, 100px); opacity:0.8" fill="url(#sw-gradient-2)" d="M0,306L40,255C80,204,160,102,240,62.3C320,23,400,45,480,85C560,125,640,181,720,204C800,227,880,215,960,192.7C1040,170,1120,136,1200,124.7C1280,113,1360,125,1440,147.3C1520,170,1600,204,1680,226.7C1760,249,1840,261,1920,260.7C2000,261,2080,249,2160,255C2240,261,2320,283,2400,277.7C2480,272,2560,238,2640,198.3C2720,159,2800,113,2880,124.7C2960,136,3040,204,3120,226.7C3200,249,3280,227,3360,187C3440,147,3520,91,3600,56.7C3680,23,3760,11,3840,5.7C3920,0,4000,0,4080,17C4160,34,4240,68,4320,68C4400,68,4480,34,4560,56.7C4640,79,4720,159,4800,181.3C4880,204,4960,170,5040,147.3C5120,125,5200,113,5280,113.3C5360,113,5440,125,5520,158.7C5600,193,5680,249,5720,277.7L5760,306L5760,340L5720,340C5680,340,5600,340,5520,340C5440,340,5360,340,5280,340C5200,340,5120,340,5040,340C4960,340,4880,340,4800,340C4720,340,4640,340,4560,340C4480,340,4400,340,4320,340C4240,340,4160,340,4080,340C4000,340,3920,340,3840,340C3760,340,3680,340,3600,340C3520,340,3440,340,3360,340C3280,340,3200,340,3120,340C3040,340,2960,340,2880,340C2800,340,2720,340,2640,340C2560,340,2480,340,2400,340C2320,340,2240,340,2160,340C2080,340,2000,340,1920,340C1840,340,1760,340,1680,340C1600,340,1520,340,1440,340C1360,340,1280,340,1200,340C1120,340,1040,340,960,340C880,340,800,340,720,340C640,340,560,340,480,340C400,340,320,340,240,340C160,340,80,340,40,340L0,340Z"/></svg>